<?xml version="1.0" standalone="no"?>
<!DOCTYPE svg PUBLIC "-//W3C//DTD SVG 20010904//EN"
 "http://www.w3.org/TR/2001/REC-SVG-20010904/DTD/svg10.dtd">
<svg version="1.0" xmlns="http://www.w3.org/2000/svg"
 width="412.000000pt" height="412.000000pt" viewBox="0 0 412.000000 412.000000"
 preserveAspectRatio="xMidYMid meet">
<metadata>
Created by potrace 1.11, written by Peter Selinger 2001-2013
</metadata>
<g transform="translate(0.000000,412.000000) scale(0.100000,-0.100000)"
fill="#000000" stroke="none">
<path d="M1970 4110 c0 -3 -17 -6 -37 -6 -69 -2 -157 -13 -258 -33 -526 -105
-988 -417 -1279 -864 -57 -87 -146 -254 -178 -332 -36 -90 -92 -269 -102 -330
-3 -16 -10 -55 -16 -85 -14 -77 -19 -118 -19 -168 -1 -30 -5 -41 -13 -36 -7 4
-8 3 -4 -5 13 -20 14 -61 2 -61 -6 0 -4 -5 4 -10 10 -6 11 -10 3 -10 -13 0
-13 -26 0 -47 4 -6 3 -14 -2 -18 -5 -3 -8 -15 -5 -28 2 -12 6 -51 9 -87 9
-119 15 -164 36 -265 104 -517 415 -974 861 -1269 242 -159 586 -284 863 -312
90 -9 88 -8 104 -18 10 -7 12 -6 6 4 -6 10 -4 11 6 4 20 -13 201 -13 218 0 12
9 13 8 6 -3 -6 -10 -4 -12 4 -7 7 5 24 10 39 12 228 31 227 31 342 60 679 176
1219 702 1415 1381 14 49 28 103 30 119 3 16 10 54 15 84 13 71 20 125 24 176
1 22 6 46 11 54 6 9 4 11 -5 5 -10 -6 -11 -4 -4 6 9 14 13 209 4 209 -3 0 -5
17 -6 38 0 32 -5 71 -18 167 -32 225 -143 522 -274 732 -126 203 -312 407
-503 548 -76 57 -221 147 -304 187 -76 38 -276 116 -315 123 -3 0 -21 6 -40
13 -19 6 -80 20 -135 31 -92 19 -129 24 -252 36 -24 2 -48 7 -54 11 -8 5 -9 3
-4 -6 6 -9 4 -11 -6 -4 -20 12 -61 12 -78 0 -11 -8 -13 -8 -8 0 5 8 -7 11 -38
10 -25 0 -45 -3 -45 -6z m320 -43 c14 -3 45 -8 70 -11 110 -14 256 -53 389
-103 567 -212 1012 -686 1186 -1264 32 -106 52 -191 60 -259 2 -14 7 -47 11
-75 11 -64 11 -390 1 -475 -41 -334 -179 -668 -391 -950 -226 -301 -579 -552
-941 -669 -110 -36 -245 -68 -325 -77 -25 -2 -56 -7 -70 -10 -43 -9 -321 -12
-400 -4 -270 28 -512 101 -740 222 -570 304 -958 876 -1027 1518 -15 131 -7
439 12 510 2 8 6 37 10 64 3 27 8 52 10 56 2 4 6 17 9 31 23 120 96 314 172
458 261 496 719 855 1262 992 62 15 139 31 170 35 31 3 77 10 102 14 49 8 389
5 430 -3z"/>
<path d="M1947 3994 c-1 -1 -37 -5 -80 -9 -79 -7 -119 -12 -147 -20 -8 -2 -31
-7 -50 -10 -19 -3 -51 -10 -70 -15 -19 -5 -37 -9 -40 -9 -3 0 -52 -16 -110
-36 -178 -62 -397 -180 -530 -285 -84 -66 -105 -85 -195 -175 -303 -303 -492
-708 -532 -1140 -16 -170 -4 -402 28 -545 5 -25 11 -54 14 -65 72 -343 313
-739 600 -985 160 -137 365 -260 541 -325 38 -14 78 -30 89 -35 26 -12 214
-58 290 -70 143 -24 331 -30 480 -17 306 29 614 138 865 306 420 283 713 723
806 1211 34 180 38 487 9 638 -2 11 -7 42 -11 69 -4 26 -19 91 -34 143 -200
697 -741 1196 -1460 1345 -8 1 -37 6 -65 9 -27 4 -68 9 -90 12 -39 6 -303 13
-308 8z m383 -48 c140 -23 148 -25 230 -48 295 -81 587 -253 809 -478 80 -80
261 -305 261 -324 0 -3 17 -34 38 -68 97 -162 183 -407 218 -622 26 -167 25
-478 -1 -576 -3 -8 -7 -33 -10 -55 -3 -22 -13 -65 -22 -95 -8 -30 -17 -65 -19
-77 -8 -44 -66 -190 -115 -292 -237 -487 -680 -846 -1209 -981 -41 -10 -93
-21 -115 -25 -23 -3 -52 -8 -65 -10 -117 -24 -416 -24 -540 0 -13 3 -42 7 -65
11 -144 21 -374 101 -533 186 -610 326 -990 971 -976 1658 1 99 10 206 19 240
2 8 6 37 10 64 3 27 8 53 10 56 2 4 7 22 10 40 13 76 81 263 135 375 145 299
375 560 653 742 190 124 467 235 667 267 19 3 46 8 60 11 14 3 61 8 105 11 44
4 81 8 83 9 10 8 283 -6 362 -19z"/>
<path d="M1550 3653 c-36 -7 -69 -15 -75 -16 -5 -2 -23 -8 -40 -12 -45 -12
-153 -71 -212 -116 -204 -153 -323 -395 -325 -659 -4 -458 348 -832 782 -831
52 0 106 3 120 6 14 3 38 7 53 10 74 14 248 95 276 129 9 10 8 16 -3 26 -12 9
-26 5 -74 -24 -119 -74 -248 -106 -404 -100 -390 13 -703 353 -706 765 -2 375
226 680 576 770 98 25 238 24 342 -2 108 -28 259 -107 245 -129 -9 -15 7 -40
26 -40 15 0 19 7 19 40 0 37 -4 42 -52 73 -84 53 -166 87 -258 108 -70 16
-218 17 -290 2z"/>
<path d="M2234 2146 c-8 -20 3 -36 24 -36 16 0 17 -54 15 -785 -3 -712 -1
-786 13 -792 9 -3 19 -1 23 5 3 5 6 131 6 279 l-1 269 271 0 c148 -1 301 3
340 7 162 18 324 146 394 310 47 109 56 275 21 384 -51 157 -172 286 -322 345
-49 19 -77 21 -416 25 -311 3 -363 1 -368 -11z m730 -47 c127 -30 259 -143
311 -265 35 -82 42 -122 40 -225 -2 -85 -7 -115 -28 -166 -63 -155 -190 -270
-332 -301 -22 -5 -175 -8 -340 -8 l-300 1 0 487 -1 487 121 3 c221 5 480 -1
529 -13z"/>
</g>
</svg>
